<svg width="217" height="90" viewBox="0 0 217 90" fill="none" xmlns="http://www.w3.org/2000/svg">
<path d="M190.849 5.38447C191.408 5.38447 191.972 5.34109 192.531 5.39411C193.736 5.50496 194.353 5.98692 193.64 7.26895C189.866 14.0357 185.321 20.2194 179.209 25.0535C176.424 27.256 172.968 27.8296 169.421 27.55C168.765 27.497 168.057 27.3765 167.806 26.7211C167.517 25.9788 168.216 25.5836 168.674 25.1691C173.705 20.6097 177.744 15.2792 181.046 9.36068C182.39 6.94603 186.333 5.4182 190.849 5.38447Z" fill="#EC362E"/>
<path d="M163.632 81.6548C163.632 79.8909 163.565 78.122 163.652 76.3629C163.748 74.4013 164.9 73.741 166.476 74.8061C167.127 75.2447 167.382 75.2736 168.052 74.8929C170.009 73.7795 172.072 73.7217 173.908 75.1339C174.727 75.7652 175.185 75.5628 175.961 75.1242C180.655 72.4493 184.718 74.8399 184.767 80.262C184.786 82.5079 184.771 84.7539 184.762 86.9998C184.757 88.2144 184.222 89.0771 182.926 89.0048C181.75 88.9422 181.364 88.0794 181.374 86.9757C181.393 84.8117 181.407 82.6429 181.359 80.4789C181.321 78.7245 180.786 77.2256 178.684 77.187C176.578 77.1533 175.976 78.6185 175.923 80.3873C175.86 82.5513 175.899 84.7201 175.879 86.8842C175.87 88.0361 175.523 89.0386 174.163 89.0193C172.814 89 172.486 87.9686 172.472 86.8408C172.443 84.6768 172.472 82.5079 172.438 80.3439C172.414 78.6667 171.908 77.2641 169.922 77.1919C167.845 77.1196 167.112 78.498 167.04 80.2861C166.953 82.4501 166.987 84.6189 167.016 86.783C167.03 87.959 166.751 88.9711 165.421 89.0048C163.955 89.0482 163.604 87.9879 163.623 86.7155C163.652 85.0238 163.632 83.3417 163.632 81.6548Z" fill="#EC362E"/>
<path d="M132.864 82.0064C132.893 76.1939 135.929 73.3793 140.768 74.2613C141.987 74.483 143.023 75.0276 143.862 75.9529C144.474 76.6277 144.643 77.4133 144.113 78.1363C143.539 78.9122 142.672 78.8737 141.982 78.3146C140.267 76.9169 138.56 76.4012 137.009 78.4062C135.866 79.881 136.189 84.4114 137.413 85.4621C138.691 86.5514 140.074 86.4598 141.366 85.4862C142.32 84.7729 143.346 83.9921 144.185 85.3561C144.922 86.5562 144.011 87.5008 143.023 88.1274C140.744 89.5733 138.339 89.6649 135.963 88.4118C133.206 86.9562 133.003 84.2717 132.864 82.0064Z" fill="#EC362E"/>
<path d="M129.924 87.0344C129.741 88.4369 129.018 89.2225 127.712 89.1792C126.401 89.1358 125.62 88.2538 125.669 86.9911C125.717 85.7428 126.536 84.8897 127.857 84.9475C129.148 85.0054 129.828 85.8343 129.924 87.0344Z" fill="#EC362E"/>
<path d="M208.749 57.0896C204.339 61.5526 198.927 62.2708 193.191 61.6538C188.314 61.1285 186.217 58.4439 186.188 53.5424C186.174 51.2771 186.622 49.0794 186.998 46.8671C187.629 43.1608 188.569 39.4931 187.841 35.6566C187.562 34.1915 186.858 33.8252 185.547 33.8975C180.93 34.1529 179.662 35.4976 179.397 40.0329C179.041 46.0671 178.361 52.0675 174.824 57.2439C172.361 60.849 168.948 62.2708 164.587 61.3309C160.316 60.4104 157.555 58.0054 156.697 53.6339C155.685 48.4817 157.078 43.6187 158.495 38.7509C158.817 37.6423 159.993 36.3121 159.155 35.4494C158.287 34.5578 156.706 35.2084 155.482 35.5265C149.66 37.0206 145.636 41.0498 141.872 45.3827C138.927 48.7709 136.589 52.617 133.842 56.5739C133.606 56.0148 133.447 55.8028 133.432 55.5811C132.82 46.4623 134.864 38.2207 141.438 31.4828C141.857 31.049 142.705 30.7647 142.426 30.0032C142.151 29.261 141.327 29.4923 140.715 29.4827C135.982 29.4055 131.254 29.2369 126.531 29.9453C117.344 31.3238 111.657 36.1964 109.763 44.5248C109.445 45.9273 109.243 47.3684 109.093 48.7998C108.669 52.9013 107.922 56.892 105.531 60.3959C103.444 63.4516 100.586 64.9119 96.8994 64.5649C93.2027 64.2179 90.7592 62.184 89.2121 58.8295C88.4457 57.1619 88.6048 56.3426 90.3157 55.2726C96.6006 51.3398 101.902 46.337 105.059 39.4883C107.021 35.2277 105.252 32.813 100.558 32.8902C99.9984 32.8998 99.4345 32.9432 98.8803 33.0203C88.7156 34.4758 80.9753 42.1101 79.3992 52.217C78.3341 59.0657 82.4163 65.2348 89.1687 67.0229C92.4364 67.8856 95.6945 67.6206 98.9526 67.0181C109.026 65.1577 115.614 58.8343 117.214 49.4408C117.576 47.3057 117.749 45.1417 118.135 43.0114C119.595 35.0204 121.827 33.001 129.856 32.3648C130.777 32.2925 132.039 31.6081 132.574 32.466C133.225 33.5119 131.89 34.2541 131.36 35.0783C125.996 43.3825 123.576 52.2266 126.121 62.0828C126.719 64.4107 128.015 64.9842 130.169 64.5456C134.184 63.7311 137.544 61.9623 139.823 58.4006C142.156 54.7521 144.551 51.1422 146.966 47.5467C147.361 46.9539 147.549 46.0092 148.749 46.0382C148.609 47.0358 148.431 47.9757 148.349 48.9251C147.535 58.656 150.822 62.9359 157.646 64.3962C164.5 65.8662 171.045 64.9457 177.045 61.0899C177.556 60.7622 178.135 59.6826 178.819 60.6224C181.017 63.6395 184.4 63.8998 187.6 64.4541C194.941 65.7264 202.17 65.3939 209.024 62.1503C212.065 60.7092 214.692 58.709 216.61 55.4895C213.602 55.3786 210.735 55.0798 208.749 57.0896ZM94.0413 37.7966C94.8462 37.0977 95.7668 35.9314 96.8849 36.5386C98.0754 37.1845 97.5163 38.5532 97.2271 39.6039C95.7379 44.9537 92.0653 48.8095 87.9782 53.2146C87.8095 46.7081 89.5639 41.686 94.0413 37.7966Z" fill="#EC362E"/>
<path d="M80.831 23.6601C77.7657 11.9532 69.8229 4.55022 58.4968 1.63433C42.3847 -2.51057 27.5787 1.42708 14.2234 11.1965C12.4064 12.5267 12.2233 13.828 12.9366 15.886C17.896 30.2679 22.7349 44.6883 27.5787 59.1087C27.8197 59.822 28.3787 60.5208 27.9739 61.5715C22.0746 60.757 16.9369 58.4387 13.0571 53.8215C11.7991 52.3226 10.4496 51.8358 8.65672 52.1105C5.92398 52.525 3.4274 53.5613 1.03203 54.9011C-0.16324 55.5711 -0.356026 56.1591 0.641642 57.2531C2.8876 59.716 5.40346 61.7739 8.4061 63.2295C14.5078 66.1887 21.0047 66.8924 27.6365 66.3333C29.5788 66.1695 30.2198 66.7237 30.7693 68.4829C32.4321 73.8327 34.278 79.1247 36.1336 84.4167C36.63 85.8336 36.8469 88.0748 39.0013 87.5398C41.1894 86.9952 40.2592 84.8504 40.0616 83.4094C39.3483 78.1656 38.1482 72.9989 36.7167 67.9142C36.0613 65.5911 36.8324 65.0947 38.8422 64.7139C45.6524 63.4367 52.1493 61.1811 58.3136 58.0146C66.6709 53.7203 73.9004 48.1729 78.4549 39.6951C81.1732 34.6345 82.2962 29.2558 80.831 23.6601ZM60.3523 50.3658C53.788 56.6892 45.85 60.2558 36.8758 61.6197C35.7528 61.7884 35.1841 61.6245 34.8515 60.3377C30.7789 44.669 26.822 28.9762 23.6314 13.0955C23.3518 11.7074 24.0266 11.1965 24.8315 10.5555C32.4851 4.42972 40.9677 3.54773 49.9901 6.78172C61.3211 10.8447 68.8638 20.8551 68.8494 34.5381C68.8542 39.1553 65.6395 45.2715 60.3523 50.3658Z" fill="#EC362E"/>
<path d="M159.907 79.4811C159.232 75.8519 157.068 74.0686 153.405 74.1554C149.323 74.2518 147.212 76.7869 147.241 81.6018C147.241 82.1608 147.198 82.7247 147.251 83.279C147.593 86.8937 149.81 89.077 153.261 89.2216C156.982 89.3759 159.252 87.5107 159.922 83.7754C160.177 82.3344 160.172 80.9126 159.907 79.4811ZM156.403 83.8574C156.143 85.3177 155.189 86.1274 153.762 86.1949C152.456 86.2575 151.42 85.6455 150.991 84.3297C150.408 82.532 150.403 80.7053 151.024 78.9124C151.477 77.6014 152.509 77.1002 153.849 77.158C155.131 77.2159 155.965 77.9244 156.302 79.0907C156.543 79.9245 156.553 80.8258 156.659 81.6307C156.572 82.4307 156.528 83.1537 156.403 83.8574Z" fill="#EC362E"/>
</svg>
